<svg xmlns="http://www.w3.org/2000/svg" viewBox="0 0 1000 1000"><defs><style>.cls-1{fill:#3b3be2;}.cls-2{font-size:459.03px;fill:#ffcd82;stroke:#000;stroke-miterlimit:10;font-family:AdobeMingStd-Light-B5pc-H, Adobe Ming Std;letter-spacing:-0.04em;}</style></defs><g id="Layer_1" data-name="Layer 1"><path class="cls-1" d="M501,996A495.13,495.13,0,0,1,308.33,44.9,495.13,495.13,0,0,1,693.67,957.1,491.86,491.86,0,0,1,501,996Z" transform="translate(-1 -1)"/><path d="M501,11A490.14,490.14,0,0,1,691.73,952.5a490.13,490.13,0,0,1-381.46-903A487,487,0,0,1,501,11m0-10C224.86,1,1,224.86,1,501s223.86,500,500,500,500-223.86,500-500S777.14,1,501,1Z" transform="translate(-1 -1)"/></g><g id="letras"><text class="cls-2" transform="translate(10.79 635.39) scale(1.09 1)">新生</text></g></svg>