<svg xmlns="http://www.w3.org/2000/svg" viewBox="0 0 1308.13 1000"><defs><style>.cls-1{fill:#1cea3a;}.cls-2{fill:none;}.cls-2,.cls-3,.cls-4,.cls-5{stroke:#000;stroke-miterlimit:10;}.cls-3,.cls-5{font-size:459.03px;}.cls-3,.cls-4,.cls-5{fill:#ffcd82;font-family:DKMandarinWhispers-Regular, DK Mandarin Whispers;}.cls-3{letter-spacing:-0.04em;}.cls-4{font-size:455.38px;letter-spacing:-0.04em;}.cls-5{letter-spacing:-0.04em;}.cls-6{font-size:12px;font-family:MyriadPro-Regular, Myriad Pro;}.cls-7{letter-spacing:-0.01em;}.cls-8{letter-spacing:-0.01em;}</style></defs><g id="Layer_1" data-name="Layer 1"><path class="cls-1" d="M501,996A495.13,495.13,0,0,1,308.33,44.9,495.13,495.13,0,0,1,693.67,957.1,491.86,491.86,0,0,1,501,996Z" transform="translate(151.93 -1)"/><path d="M501,11A490.14,490.14,0,0,1,691.73,952.5a490.13,490.13,0,0,1-381.46-903A487,487,0,0,1,501,11m0-10C224.86,1,1,224.86,1,501s223.86,500,500,500,500-223.86,500-500S777.14,1,501,1Z" transform="translate(151.93 -1)"/></g><g id="letras"><path class="cls-2" d="M-62,825.12" transform="translate(151.93 -1)"/><text class="cls-3" transform="translate(0.5 430.36) scale(1.09 1)">N</text><text class="cls-4" transform="translate(957.39 806.68) scale(1.09 1)">i</text><text class="cls-4" transform="translate(737.44 862.5) scale(1.09 1)">G</text><text class="cls-4" transform="translate(583.67 806.68) scale(1.09 1)">E</text><text class="cls-4" transform="translate(365.93 862.5) scale(1.09 1)">B</text><text class="cls-3" transform="translate(433.41 429.75) scale(1.09 1)">W</text><text class="cls-5" transform="translate(253.87 486.02) scale(1.09 1)">E</text><text class="cls-4" transform="translate(1075.94 862.92) scale(1.09 1)">N</text><text class="cls-6" transform="translate(944.72 645.27)"><tspan class="cls-7">L</tspan><tspan x="5.5" y="0">o</tspan><tspan class="cls-8" x="12.08" y="0">r</tspan><tspan x="15.89" y="0">em ipsum</tspan></text></g></svg>